# xmcd
#
# Track frame offsets: 
#        150
#        23712
#        41169
#        62872
#        74097
#        93757
#        109954
#        121180
#        136615
#        159898
#        174959
#        189543
#
# Disc length: 2708 seconds
#
# Revision: 6
# Processed by: cddbd v1.5.2PL0 Copyright (c) Steve Scherf et al.
# Submitted via: ExactAudioCopyFreeDBPlugin 1.0
#
DISCID=9b0a920c
DTITLE=Reinhard Mey - 1979 - Mey - Keine ruhige Minute
DYEAR=1979
DGENRE=Chanson
TTITLE0=Happy Birthday To Me
TTITLE1=Dieter Malinek, Ulla und ich
TTITLE2=Dr. Nahtlos, Dr. Sägeberg und Dr. Hein
TTITLE3=Von Kammerjägern, Klarsichthüllen, von dir und von mir
TTITLE4=Zeugnistag
TTITLE5=Alles ist gut
TTITLE6=Keine ruhige Minute
TTITLE7=Erinnerungen
TTITLE8=Daddy Blue
TTITLE9=Von Luftschlössern, die zerbrochen sind
TTITLE10=Was weiß ich schon von dir?
TTITLE11=Ab heut' und ab hier
EXTD=YEAR: 1981
EXTT0=
EXTT1=
EXTT2=
EXTT3=
EXTT4=
EXTT5=
EXTT6=
EXTT7=
EXTT8=
EXTT9=
EXTT10=
EXTT11=
PLAYORDER=
